<?xml version="1.0" standalone="no"?><!DOCTYPE svg PUBLIC "-//W3C//DTD SVG 1.1//EN" "http://www.w3.org/Graphics/SVG/1.1/DTD/svg11.dtd"><svg t="1739934510781" class="icon" viewBox="0 0 1024 1024" version="1.1" xmlns="http://www.w3.org/2000/svg" p-id="4254" data-spm-anchor-id="a313x.search_index.0.i2.38ad3a81fyMtrG" xmlns:xlink="http://www.w3.org/1999/xlink" width="200" height="200"><path d="M848.111234 0.152767H184.565956C116.798329 0.152767 84.640788 31.164553 84.640788 98.840519v772.544831c0 56.065642 40.254215 72.258989 91.66045 86.92466v65.68999h114.010324v-60.9542h443.025511v60.9542h114.010324v-65.68999c51.421513-14.81844 92.072923-40.177831 92.072922-96.243473V96.090706C939.405043 28.261972 915.87886 0.152767 848.111234 0.152767zM179.478801 91.965985h666.233984a2.933134 2.933134 0 0 1 2.872028 2.902581v318.061764H176.606773V94.868566a2.933134 2.933134 0 0 1 2.872028-2.902581z m666.233984 779.877667H179.478801a2.841474 2.841474 0 0 1-2.872028-2.902581v-365.114128h671.97804v365.114128a2.841474 2.841474 0 0 1-2.872028 2.902581zM358.720812 199.055945h-90.132777v138.865583h90.132777v-138.865583z m-89.674475 535.449799h90.82023V580.516187h-90.82023v153.989557z" fill="#30C4E9" p-id="4255"></path></svg>